<svg width="28" height="29" viewBox="0 0 28 29" fill="none" xmlns="http://www.w3.org/2000/svg">
<path d="M12.5407 26.6499H15.4807C16.6007 26.6499 17.3241 25.8565 17.1141 24.8882L16.6357 22.7766H11.3857L10.9074 24.8882C10.6974 25.7982 11.4907 26.6499 12.5407 26.6499Z" stroke="#E2E2E2" stroke-width="1.75" stroke-linecap="round" stroke-linejoin="round"/>
<path d="M16.636 22.7651L18.6543 20.9684C19.786 19.9651 19.8327 19.265 18.9343 18.1333L15.376 13.6184C14.6293 12.6734 13.4043 12.6734 12.6577 13.6184L9.09933 18.1333C8.201 19.265 8.201 20.0001 9.37933 20.9684L11.3977 22.7651" stroke="#E2E2E2" stroke-width="1.75" stroke-linecap="round" stroke-linejoin="round"/>
<path d="M14.0112 13.3733V16.325" stroke="#E2E2E2" stroke-width="1.75" stroke-linecap="round" stroke-linejoin="round"/>
<path d="M13.0083 6.45507L12.0983 5.54504C11.5499 4.99671 11.5499 4.1101 12.0983 3.56176L13.0083 2.65173C13.5566 2.1034 14.4433 2.1034 14.9916 2.65173L15.9016 3.56176C16.4499 4.1101 16.4499 4.99671 15.9016 5.54504L14.9916 6.45507C14.4433 7.00341 13.5566 7.00341 13.0083 6.45507Z" stroke="#E2E2E2" stroke-width="1.75" stroke-linecap="round" stroke-linejoin="round"/>
<path d="M22.6915 11.8452H23.9748C24.7448 11.8452 25.3748 12.4752 25.3748 13.2452V14.5285C25.3748 15.2985 24.7448 15.9286 23.9748 15.9286H22.6915C21.9215 15.9286 21.2915 15.2985 21.2915 14.5285V13.2452C21.2915 12.4752 21.9215 11.8452 22.6915 11.8452Z" stroke="#E2E2E2" stroke-width="1.75" stroke-linecap="round" stroke-linejoin="round"/>
<path d="M5.30834 11.8452H4.025C3.255 11.8452 2.625 12.4752 2.625 13.2452V14.5285C2.625 15.2985 3.255 15.9286 4.025 15.9286H5.30834C6.07834 15.9286 6.70833 15.2985 6.70833 14.5285V13.2452C6.70833 12.4752 6.07834 11.8452 5.30834 11.8452Z" stroke="#E2E2E2" stroke-width="1.75" stroke-linecap="round" stroke-linejoin="round"/>
<path d="M21.6301 12.1836L15.4468 6.00024" stroke="#E2E2E2" stroke-width="1.75" stroke-linecap="round" stroke-linejoin="round"/>
<path d="M6.37012 12.1836L12.5535 6.00024" stroke="#E2E2E2" stroke-width="1.75" stroke-linecap="round" stroke-linejoin="round"/>
</svg>
