<svg width="28" height="29" viewBox="0 0 28 29" fill="none" xmlns="http://www.w3.org/2000/svg">
<path d="M8.4701 2.7334H19.5184C20.2768 2.7334 20.9534 2.75676 21.5601 2.83843C24.7918 3.2001 25.6668 4.71674 25.6668 8.87008V16.2434C25.6668 20.3968 24.7918 21.9134 21.5601 22.2751C20.9534 22.3567 20.2884 22.3801 19.5184 22.3801H8.4701C7.71176 22.3801 7.0351 22.3567 6.42843 22.2751C3.19676 21.9134 2.32178 20.3968 2.32178 16.2434V8.87008C2.32178 4.71674 3.19676 3.2001 6.42843 2.83843C7.0351 2.75676 7.71176 2.7334 8.4701 2.7334Z" stroke="#E2E2E2" stroke-width="1.75" stroke-linecap="round" stroke-linejoin="round"/>
<path d="M15.8433 10.1069H20.1366" stroke="#E2E2E2" stroke-width="1.75" stroke-linecap="round" stroke-linejoin="round"/>
<path d="M7.86377 16.8618H7.88709H20.1488" stroke="#E2E2E2" stroke-width="1.75" stroke-linecap="round" stroke-linejoin="round"/>
<path d="M8.1665 26.0669H19.8332" stroke="#E2E2E2" stroke-width="1.75" stroke-linecap="round" stroke-linejoin="round"/>
<path d="M8.39382 10.0836H8.4043" stroke="#E2E2E2" stroke-width="2.33333" stroke-linecap="round" stroke-linejoin="round"/>
<path d="M12.2434 10.0836H12.2539" stroke="#E2E2E2" stroke-width="2.33333" stroke-linecap="round" stroke-linejoin="round"/>
</svg>
