<svg width="28" height="29" viewBox="0 0 28 29" fill="none" xmlns="http://www.w3.org/2000/svg">
<path d="M11.1648 14.9368L7.60645 18.4951" stroke="#E2E2E2" stroke-width="1.75" stroke-miterlimit="10" stroke-linecap="round" stroke-linejoin="round"/>
<path d="M7.6416 14.9717L11.1999 18.53" stroke="#E2E2E2" stroke-width="1.75" stroke-miterlimit="10" stroke-linecap="round" stroke-linejoin="round"/>
<path d="M15.7847 16.7334H15.7963" stroke="#E2E2E2" stroke-width="2.33333" stroke-miterlimit="10" stroke-linecap="round" stroke-linejoin="round"/>
<path d="M20.3818 16.7334H20.3935" stroke="#E2E2E2" stroke-width="2.33333" stroke-miterlimit="10" stroke-linecap="round" stroke-linejoin="round"/>
<path d="M18.0835 19.0434V19.02" stroke="#E2E2E2" stroke-width="2.33333" stroke-miterlimit="10" stroke-linecap="round" stroke-linejoin="round"/>
<path d="M18.0835 14.4469V14.4236" stroke="#E2E2E2" stroke-width="2.33333" stroke-miterlimit="10" stroke-linecap="round" stroke-linejoin="round"/>
<path d="M10.5002 26.0668H17.5002C23.3335 26.0668 25.6668 23.7335 25.6668 17.9001V15.5668C25.6668 9.73348 23.3335 7.40015 17.5002 7.40015H10.5002C4.66683 7.40015 2.3335 9.73348 2.3335 15.5668V17.9001C2.3335 23.7335 4.66683 26.0668 10.5002 26.0668Z" stroke="#E2E2E2" stroke-width="1.75" stroke-linecap="round" stroke-linejoin="round"/>
<path d="M15.1784 2.7334L15.1667 3.91173C15.1551 4.5534 14.6417 5.06673 14.0001 5.06673H13.9651C13.3234 5.06673 12.8101 5.59173 12.8101 6.2334C12.8101 6.87506 13.3351 7.40006 13.9767 7.40006H15.1434" stroke="#E2E2E2" stroke-width="1.75" stroke-linecap="round" stroke-linejoin="round"/>
</svg>
