<svg width="28" height="29" viewBox="0 0 28 29" fill="none" xmlns="http://www.w3.org/2000/svg">
<path d="M22.237 22.1818L19.7403 17.2002L17.2437 22.1818" stroke="white" stroke-width="1.75" stroke-linecap="round" stroke-linejoin="round"/>
<path d="M17.6982 21.2949H21.8049" stroke="white" stroke-width="1.75" stroke-linecap="round" stroke-linejoin="round"/>
<path d="M19.7397 26.0669C16.473 26.0669 13.813 23.4186 13.813 20.1402C13.813 16.8736 16.4613 14.2136 19.7397 14.2136C23.0063 14.2136 25.6663 16.8619 25.6663 20.1402C25.6663 23.4186 23.018 26.0669 19.7397 26.0669Z" stroke="white" stroke-width="1.75" stroke-linecap="round" stroke-linejoin="round"/>
<path d="M5.85683 2.7334H10.4302C12.8452 2.7334 14.0118 3.90009 13.9535 6.25675V10.8301C14.0118 13.2451 12.8452 14.4118 10.4302 14.3534H5.85683C3.50017 14.4001 2.3335 13.2334 2.3335 10.8184V6.24508C2.3335 3.90008 3.50017 2.7334 5.85683 2.7334Z" stroke="white" stroke-width="1.75" stroke-linecap="round" stroke-linejoin="round"/>
<path d="M10.5121 7.22485H5.77539" stroke="white" stroke-width="1.75" stroke-linecap="round" stroke-linejoin="round"/>
<path d="M8.13232 6.43164V7.22497" stroke="white" stroke-width="1.75" stroke-linecap="round" stroke-linejoin="round"/>
<path d="M9.32201 7.21362C9.32201 9.25529 7.72367 10.9119 5.76367 10.9119" stroke="white" stroke-width="1.75" stroke-linecap="round" stroke-linejoin="round"/>
<path d="M10.5118 10.9117C9.66017 10.9117 8.89018 10.4567 8.35352 9.7334" stroke="white" stroke-width="1.75" stroke-linecap="round" stroke-linejoin="round"/>
<path d="M2.33398 17.9001C2.33398 22.4151 5.98565 26.0668 10.5007 26.0668L9.27565 24.0251" stroke="white" stroke-width="1.75" stroke-linecap="round" stroke-linejoin="round"/>
<path d="M25.6672 10.9001C25.6672 6.38507 22.0155 2.7334 17.5005 2.7334L18.7255 4.77507" stroke="white" stroke-width="1.75" stroke-linecap="round" stroke-linejoin="round"/>
</svg>
