<svg width="28" height="29" viewBox="0 0 28 29" fill="none" xmlns="http://www.w3.org/2000/svg">
<path d="M14 22.5667C17.8617 22.5667 21 19.4284 21 15.5667V9.7334C21 5.87173 17.8617 2.7334 14 2.7334C10.1383 2.7334 7 5.87173 7 9.7334V15.5667C7 19.4284 10.1383 22.5667 14 22.5667Z" stroke="#E2E2E2" stroke-width="1.75" stroke-linecap="round" stroke-linejoin="round"/>
<path d="M3.5 13.2334V15.5667C3.5 21.3651 8.20167 26.0667 14 26.0667C19.7983 26.0667 24.5 21.3651 24.5 15.5667V13.2334" stroke="#E2E2E2" stroke-width="1.75" stroke-linecap="round" stroke-linejoin="round"/>
<path d="M10.6289 9.12686C12.7056 8.36852 14.9689 8.36852 17.0456 9.12686" stroke="#E2E2E2" stroke-width="1.75" stroke-linecap="round" stroke-linejoin="round"/>
<path d="M11.7021 12.6266C13.1021 12.2416 14.5838 12.2416 15.9838 12.6266" stroke="#E2E2E2" stroke-width="1.75" stroke-linecap="round" stroke-linejoin="round"/>
</svg>
