<svg width="28" height="28" viewBox="0 0 28 28" fill="none" xmlns="http://www.w3.org/2000/svg">
<g clip-path="url(#clip0_300_11110)">
<path d="M14 0C6.28009 0 0 6.28009 0 14C0 21.7199 6.28009 28 14 28C21.7199 28 28 21.7199 28 14C28 6.28009 21.7199 0 14 0Z" fill="white" fill-opacity="0.1"/>
<path d="M13.998 7.58325C14.5648 7.58325 15.0253 8.04294 15.0254 8.60962V12.9729H19.3887C19.9554 12.973 20.415 13.4335 20.415 14.0002C20.4149 14.5668 19.9553 15.0266 19.3887 15.0266H15.0254V19.3899C15.0254 19.9567 14.5648 20.4163 13.998 20.4163C13.4315 20.416 12.9717 19.9565 12.9717 19.3899V15.0266H8.6084C8.04174 15.0266 7.58221 14.5669 7.58203 14.0002C7.58203 13.4335 8.04163 12.9729 8.6084 12.9729H12.9717V8.60962C12.9718 8.04309 13.4315 7.5835 13.998 7.58325Z" fill="#E2E2E2"/>
</g>
<defs>
<clipPath id="clip0_300_11110">
<rect width="28" height="28" fill="white"/>
</clipPath>
</defs>
</svg>
