<svg width="24" height="24" viewBox="0 0 24 24" fill="none" xmlns="http://www.w3.org/2000/svg">
<path fill-rule="evenodd" clip-rule="evenodd" d="M20.4004 6.00078C20.4004 5.68252 20.274 5.3773 20.0489 5.15225C19.8239 4.92721 19.5187 4.80078 19.2004 4.80078H4.80039C4.48215 4.80078 4.17687 4.92721 3.95187 5.15225C3.72687 5.3773 3.60039 5.68252 3.60039 6.00078C3.60039 6.31905 3.72687 6.62427 3.95187 6.84931C4.17687 7.07435 4.48215 7.20078 4.80039 7.20078H19.2004C19.5187 7.20078 19.8239 7.07435 20.0489 6.84931C20.274 6.62427 20.4004 6.31905 20.4004 6.00078ZM20.4004 12.0008C20.4004 11.6825 20.274 11.3773 20.0489 11.1522C19.8239 10.9272 19.5187 10.8008 19.2004 10.8008H12.0004C11.6822 10.8008 11.3769 10.9272 11.1519 11.1522C10.9269 11.3773 10.8004 11.6825 10.8004 12.0008C10.8004 12.319 10.9269 12.6243 11.1519 12.8493C11.3769 13.0743 11.6822 13.2008 12.0004 13.2008H19.2004C19.5187 13.2008 19.8239 13.0743 20.0489 12.8493C20.274 12.6243 20.4004 12.319 20.4004 12.0008ZM20.4004 18.0008C20.4004 17.6825 20.274 17.3773 20.0489 17.1523C19.8239 16.9273 19.5187 16.8008 19.2004 16.8008H4.80039C4.48215 16.8008 4.17687 16.9273 3.95187 17.1523C3.72687 17.3773 3.60039 17.6825 3.60039 18.0008C3.60039 18.319 3.72687 18.6243 3.95187 18.8493C4.17687 19.0743 4.48215 19.2008 4.80039 19.2008H19.2004C19.5187 19.2008 19.8239 19.0743 20.0489 18.8493C20.274 18.6243 20.4004 18.319 20.4004 18.0008Z" fill="white"/>
</svg>
