<svg width="47" height="47" viewBox="0 0 47 47" fill="none" xmlns="http://www.w3.org/2000/svg">
<path d="M22.64 41.76C11.792 41.76 2.95996 32.928 2.95996 22.08C2.95996 11.232 11.792 2.39999 22.64 2.39999C33.488 2.39999 42.32 11.232 42.32 22.08C42.32 32.928 33.488 41.76 22.64 41.76ZM22.64 5.27999C13.3664 5.27999 5.83996 12.8256 5.83996 22.08C5.83996 31.3344 13.3664 38.88 22.64 38.88C31.9136 38.88 39.44 31.3344 39.44 22.08C39.44 12.8256 31.9136 5.27999 22.64 5.27999Z" fill="#E2E2E2"/>
<path d="M42.7994 43.68C42.4346 43.68 42.0698 43.5456 41.7818 43.2576L37.9418 39.4176C37.385 38.8608 37.385 37.9392 37.9418 37.3824C38.4986 36.8256 39.4202 36.8256 39.977 37.3824L43.817 41.2224C44.3738 41.7792 44.3738 42.7008 43.817 43.2576C43.529 43.5456 43.1642 43.68 42.7994 43.68Z" fill="#E2E2E2"/>
</svg>
