<svg width="24" height="24" viewBox="0 0 24 24" fill="none" xmlns="http://www.w3.org/2000/svg">
<path fill-rule="evenodd" clip-rule="evenodd" d="M20.4004 6C20.4004 5.68174 20.274 5.37652 20.0489 5.15147C19.8239 4.92643 19.5187 4.8 19.2004 4.8H4.80039C4.48215 4.8 4.17687 4.92643 3.95187 5.15147C3.72687 5.37652 3.60039 5.68174 3.60039 6C3.60039 6.31826 3.72687 6.62348 3.95187 6.84853C4.17687 7.07357 4.48215 7.2 4.80039 7.2H19.2004C19.5187 7.2 19.8239 7.07357 20.0489 6.84853C20.274 6.62348 20.4004 6.31826 20.4004 6ZM20.4004 12C20.4004 11.6817 20.274 11.3765 20.0489 11.1515C19.8239 10.9264 19.5187 10.8 19.2004 10.8H12.0004C11.6822 10.8 11.3769 10.9264 11.1519 11.1515C10.9269 11.3765 10.8004 11.6817 10.8004 12C10.8004 12.3182 10.9269 12.6235 11.1519 12.8485C11.3769 13.0735 11.6822 13.2 12.0004 13.2H19.2004C19.5187 13.2 19.8239 13.0735 20.0489 12.8485C20.274 12.6235 20.4004 12.3182 20.4004 12ZM20.4004 18C20.4004 17.6818 20.274 17.3765 20.0489 17.1515C19.8239 16.9265 19.5187 16.8 19.2004 16.8H4.80039C4.48215 16.8 4.17687 16.9265 3.95187 17.1515C3.72687 17.3765 3.60039 17.6818 3.60039 18C3.60039 18.3182 3.72687 18.6235 3.95187 18.8485C4.17687 19.0735 4.48215 19.2 4.80039 19.2H19.2004C19.5187 19.2 19.8239 19.0735 20.0489 18.8485C20.274 18.6235 20.4004 18.3182 20.4004 18Z" fill="#212125"/>
</svg>
