<svg width="28" height="29" viewBox="0 0 28 29" fill="none" xmlns="http://www.w3.org/2000/svg">
<path d="M9.33329 26.0668H18.6666C23.3566 26.0668 24.1966 24.1885 24.4416 21.9018L25.3166 12.5685C25.6316 9.72181 24.815 7.40015 19.8333 7.40015H8.16663C3.18496 7.40015 2.36829 9.72181 2.68329 12.5685L3.55829 21.9018C3.80329 24.1885 4.64329 26.0668 9.33329 26.0668Z" stroke="white" stroke-width="1.75" stroke-miterlimit="10" stroke-linecap="round" stroke-linejoin="round"/>
<path d="M9.3335 7.40006V6.46673C9.3335 4.40173 9.3335 2.7334 13.0668 2.7334H14.9335C18.6668 2.7334 18.6668 4.40173 18.6668 6.46673V7.40006" stroke="white" stroke-width="1.75" stroke-miterlimit="10" stroke-linecap="round" stroke-linejoin="round"/>
<path d="M16.3332 15.5668V16.7335C16.3332 16.7451 16.3332 16.7451 16.3332 16.7568C16.3332 18.0285 16.3215 19.0668 13.9998 19.0668C11.6898 19.0668 11.6665 18.0401 11.6665 16.7685V15.5668C11.6665 14.4001 11.6665 14.4001 12.8332 14.4001H15.1665C16.3332 14.4001 16.3332 14.4001 16.3332 15.5668Z" stroke="white" stroke-width="1.75" stroke-miterlimit="10" stroke-linecap="round" stroke-linejoin="round"/>
<path d="M25.2585 13.2334C22.5635 15.1934 19.4835 16.3601 16.3335 16.7567" stroke="white" stroke-width="1.75" stroke-miterlimit="10" stroke-linecap="round" stroke-linejoin="round"/>
<path d="M3.05664 13.5486C5.68164 15.3453 8.64497 16.4302 11.6666 16.7686" stroke="white" stroke-width="1.75" stroke-miterlimit="10" stroke-linecap="round" stroke-linejoin="round"/>
</svg>
