<svg width="28" height="29" viewBox="0 0 28 29" fill="none" xmlns="http://www.w3.org/2000/svg">
<path d="M21 22.4034H20.1133C19.18 22.4034 18.2933 22.7651 17.64 23.4184L15.645 25.3901C14.735 26.2884 13.2533 26.2884 12.3433 25.3901L10.3483 23.4184C9.69499 22.7651 8.79667 22.4034 7.875 22.4034H7C5.06333 22.4034 3.5 20.8518 3.5 18.9385V6.21008C3.5 4.29675 5.06333 2.74512 7 2.74512H21C22.9367 2.74512 24.5 4.29675 24.5 6.21008V18.9385C24.5 20.8401 22.9367 22.4034 21 22.4034Z" stroke="#E2E2E2" stroke-width="1.75" stroke-miterlimit="10" stroke-linecap="round" stroke-linejoin="round"/>
<path d="M14.3267 17.8536C14.1517 17.9119 13.86 17.9119 13.6733 17.8536C12.1567 17.3286 8.75 15.1702 8.75 11.4952C8.75 9.87357 10.0567 8.56689 11.6667 8.56689C12.6233 8.56689 13.4633 9.02189 14 9.73356C14.5367 9.02189 15.3767 8.56689 16.3333 8.56689C17.9433 8.56689 19.25 9.87357 19.25 11.4952C19.2383 15.1702 15.8433 17.3286 14.3267 17.8536Z" stroke="#E2E2E2" stroke-width="1.75" stroke-linecap="round" stroke-linejoin="round"/>
</svg>
