<svg width="28" height="29" viewBox="0 0 28 29" fill="none" xmlns="http://www.w3.org/2000/svg">
<path d="M23.8232 14.8317C24.8382 15.24 25.4682 16.4417 25.2349 17.5034L24.7565 19.6734C23.9282 23.4067 20.9999 26.0667 16.7765 26.0667H11.2232C6.99986 26.0667 4.07153 23.4067 3.2432 19.6734L2.76486 17.5034C2.53153 16.4417 3.16152 15.24 4.17652 14.8317L5.8332 14.1667L12.2615 11.5884C13.3815 11.145 14.6182 11.145 15.7382 11.5884L22.1665 14.1667L23.8232 14.8317Z" stroke="white" stroke-width="1.75" stroke-linecap="round" stroke-linejoin="round"/>
<path d="M14 26.0669V12.0669" stroke="white" stroke-width="1.75" stroke-linecap="round" stroke-linejoin="round"/>
<path d="M22.1668 9.7334V14.1667L15.7385 11.5884C14.6185 11.1451 13.3818 11.1451 12.2618 11.5884L5.8335 14.1667V9.7334C5.8335 7.8084 7.4085 6.2334 9.3335 6.2334H18.6668C20.5918 6.2334 22.1668 7.8084 22.1668 9.7334Z" stroke="white" stroke-width="1.75" stroke-linecap="round" stroke-linejoin="round"/>
<path d="M16.9168 6.2334H11.0835V3.90007C11.0835 3.2584 11.6085 2.7334 12.2502 2.7334H15.7502C16.3918 2.7334 16.9168 3.2584 16.9168 3.90007V6.2334Z" stroke="white" stroke-width="1.75" stroke-linecap="round" stroke-linejoin="round"/>
</svg>
